<svg width="30" height="24" viewBox="0 0 30 24" fill="none" xmlns="http://www.w3.org/2000/svg">
<path d="M28.3332 21.3334V6.33337C28.3332 5.89135 28.1576 5.46742 27.845 5.15486C27.5325 4.8423 27.1085 4.66671 26.6665 4.66671H22.6965C22.3871 4.66654 22.0838 4.58024 21.8206 4.41745C21.5575 4.25467 21.3448 4.02184 21.2065 3.74504L20.4598 2.25504C20.3215 1.97824 20.1089 1.74541 19.8457 1.58263C19.5826 1.41985 19.2793 1.33354 18.9698 1.33337H11.0298C10.7204 1.33354 10.4171 1.41985 10.154 1.58263C9.8908 1.74541 9.67816 1.97824 9.53984 2.25504L8.79317 3.74504C8.65485 4.02184 8.44221 4.25467 8.17905 4.41745C7.91589 4.58024 7.61261 4.66654 7.30317 4.66671H3.33317C2.89114 4.66671 2.46722 4.8423 2.15466 5.15486C1.8421 5.46742 1.6665 5.89135 1.6665 6.33337V21.3334C1.6665 21.7754 1.8421 22.1993 2.15466 22.5119C2.46722 22.8244 2.89114 23 3.33317 23H26.6665C27.1085 23 27.5325 22.8244 27.845 22.5119C28.1576 22.1993 28.3332 21.7754 28.3332 21.3334Z" stroke="white" stroke-width="2"/>
<path d="M20 13C20 14.3261 19.4732 15.5979 18.5355 16.5355C17.5979 17.4732 16.3261 18 15 18C13.6739 18 12.4021 17.4732 11.4645 16.5355C10.5268 15.5979 10 14.3261 10 13C10 11.6739 10.5268 10.4021 11.4645 9.46447C12.4021 8.52678 13.6739 8 15 8C16.3261 8 17.5979 8.52678 18.5355 9.46447C19.4732 10.4021 20 11.6739 20 13V13Z" stroke="white" stroke-width="2"/>
</svg>
