<svg width="150" height="150" viewBox="0 0 150 150" fill="none" xmlns="http://www.w3.org/2000/svg">
<path fill-rule="evenodd" clip-rule="evenodd" d="M75 0C33.5795 0 0 33.5795 0 75C0 116.42 33.5795 150 75 150C116.42 150 150 116.42 150 75C150 33.5795 116.42 0 75 0ZM107.509 62.3182C108.108 61.6339 108.563 60.8369 108.849 59.9739C109.135 59.1109 109.246 58.1994 109.175 57.2931C109.103 56.3867 108.851 55.5038 108.433 54.6963C108.016 53.8888 107.441 53.173 106.742 52.591C106.044 52.0089 105.236 51.5725 104.367 51.3072C103.497 51.042 102.583 50.9534 101.679 51.0466C100.774 51.1397 99.8978 51.4128 99.1005 51.8498C98.3033 52.2867 97.6015 52.8787 97.0364 53.5909L67.7182 88.7659L52.5477 73.5886C51.2618 72.3467 49.5395 71.6594 47.7518 71.675C45.9641 71.6905 44.254 72.4075 42.9899 73.6717C41.7257 74.9358 41.0087 76.6459 40.9931 78.4336C40.9776 80.2213 41.6648 81.9436 42.9068 83.2295L63.3614 103.684C64.0313 104.354 64.8334 104.876 65.7165 105.219C66.5996 105.561 67.5443 105.716 68.4905 105.673C69.4366 105.63 70.3635 105.39 71.2119 104.969C72.0603 104.548 72.8117 103.955 73.4182 103.227L107.509 62.3182Z" fill="#3763FF"/>
</svg>
