<svg width="11" height="6" viewBox="0 0 11 6" fill="none" xmlns="http://www.w3.org/2000/svg">
<path d="M5.79413 5.62886L10.1085 1.1008C10.1805 1.02525 10.2207 0.924871 10.2207 0.820489C10.2207 0.716106 10.1805 0.61573 10.1085 0.540177L10.1036 0.535302C10.0687 0.498548 10.0267 0.469282 9.9801 0.449284C9.93352 0.429285 9.88335 0.418972 9.83266 0.418972C9.78196 0.418972 9.7318 0.429285 9.68522 0.449284C9.63863 0.469282 9.5966 0.498548 9.56169 0.535302L5.49919 4.7993L1.43831 0.535301C1.4034 0.498547 1.36137 0.469281 1.31479 0.449283C1.2682 0.429284 1.21804 0.418971 1.16735 0.418971C1.11665 0.418971 1.06649 0.429284 1.0199 0.449283C0.97332 0.469281 0.931293 0.498547 0.896377 0.535301L0.891502 0.540176C0.819478 0.615729 0.779298 0.716106 0.779298 0.820488C0.779298 0.924871 0.819477 1.02525 0.891502 1.1008L5.20588 5.62886C5.24382 5.66869 5.28945 5.70039 5.34001 5.72205C5.39057 5.74371 5.445 5.75488 5.5 5.75488C5.555 5.75488 5.60944 5.74371 5.65999 5.72205C5.71055 5.70039 5.75618 5.66869 5.79413 5.62886Z" fill="#333333"/>
</svg>
