<svg width="150" height="150" viewBox="0 0 150 150" fill="none" xmlns="http://www.w3.org/2000/svg">
<mask id="mask0_74_743" style="mask-type:alpha" maskUnits="userSpaceOnUse" x="0" y="0" width="150" height="150">
<rect x="0.5" y="0.5" width="149" height="149" rx="74.5" fill="#E5E5E5" stroke="#DDDDDD"/>
</mask>
<g mask="url(#mask0_74_743)">
<rect x="0.5" y="0.5" width="149" height="149" rx="74.5" fill="#E5E5E5" stroke="#DDDDDD"/>
<path opacity="0.2" d="M133.307 130.764V149.5H16.6934V130.765C34.4248 120.553 54.5343 115.189 74.9995 115.216H75.0002C96.2135 115.216 116.149 120.842 133.307 130.764ZM46.0968 61.7898C46.0968 54.1241 49.1419 46.7724 54.5624 41.352C59.9828 35.9315 67.3345 32.8864 75.0002 32.8864C82.6658 32.8864 90.0175 35.9315 95.438 41.352C100.858 46.7724 103.904 54.1241 103.904 61.7898V73.5511C103.904 81.2168 100.858 88.5685 95.438 93.9889C90.0175 99.4094 82.6658 102.455 75.0002 102.455C67.3345 102.455 59.9828 99.4094 54.5624 93.9889C49.1419 88.5685 46.0968 81.2168 46.0968 73.5511V61.7898Z" fill="#7D7F82" stroke="#DDDDDD"/>
</g>
</svg>
