<svg width="30" height="30" viewBox="0 0 30 30" fill="none" xmlns="http://www.w3.org/2000/svg">
<path d="M21.25 15V14.8875C21.2443 14.7675 21.2189 14.6493 21.175 14.5375C21.1416 14.4517 21.0952 14.3717 21.0375 14.3C21.0043 14.2429 20.9667 14.1886 20.925 14.1375L17.35 10.3875C17.2367 10.2685 17.1011 10.1729 16.951 10.1063C16.8008 10.0397 16.6389 10.0033 16.4747 9.99928C16.143 9.99108 15.8216 10.115 15.5813 10.3437C15.3409 10.5725 15.2013 10.8873 15.1931 11.219C15.1848 11.5507 15.3088 11.8721 15.5375 12.1125L17.075 13.75H10C9.66848 13.75 9.35054 13.8817 9.11612 14.1161C8.8817 14.3505 8.75 14.6685 8.75 15C8.75 15.3315 8.8817 15.6494 9.11612 15.8839C9.35054 16.1183 9.66848 16.25 10 16.25H16.9875L15.3625 17.8625C15.2453 17.9787 15.1523 18.1169 15.0889 18.2693C15.0254 18.4216 14.9928 18.585 14.9928 18.75C14.9928 18.915 15.0254 19.0784 15.0889 19.2307C15.1523 19.383 15.2453 19.5213 15.3625 19.6375C15.4787 19.7546 15.617 19.8476 15.7693 19.9111C15.9216 19.9746 16.085 20.0072 16.25 20.0072C16.415 20.0072 16.5784 19.9746 16.7307 19.9111C16.883 19.8476 17.0213 19.7546 17.1375 19.6375L20.8875 15.8875C20.9999 15.7723 21.0891 15.6365 21.15 15.4875C21.2157 15.3333 21.2497 15.1675 21.25 15Z" fill="#999999"/>
<path d="M15 2.5C12.5277 2.5 10.111 3.23311 8.05538 4.60663C5.99976 5.98015 4.39761 7.93238 3.45151 10.2165C2.50542 12.5005 2.25787 15.0139 2.74019 17.4386C3.2225 19.8634 4.41301 22.0907 6.16117 23.8388C7.90933 25.587 10.1366 26.7775 12.5614 27.2598C14.9861 27.7421 17.4995 27.4946 19.7835 26.5485C22.0676 25.6024 24.0199 24.0002 25.3934 21.9446C26.7669 19.889 27.5 17.4723 27.5 15C27.5 13.3585 27.1767 11.733 26.5485 10.2165C25.9203 8.69989 24.9996 7.3219 23.8388 6.16117C22.6781 5.00043 21.3001 4.07969 19.7835 3.45151C18.267 2.82332 16.6415 2.5 15 2.5V2.5ZM15 25C13.0222 25 11.0888 24.4135 9.4443 23.3147C7.79981 22.2159 6.51809 20.6541 5.76121 18.8268C5.00433 16.9996 4.8063 14.9889 5.19215 13.0491C5.57801 11.1093 6.53041 9.32746 7.92894 7.92893C9.32746 6.53041 11.1093 5.578 13.0491 5.19215C14.9889 4.8063 16.9996 5.00433 18.8268 5.7612C20.6541 6.51808 22.2159 7.79981 23.3147 9.4443C24.4135 11.0888 25 13.0222 25 15C25 17.6522 23.9464 20.1957 22.0711 22.0711C20.1957 23.9464 17.6522 25 15 25V25Z" fill="#999999"/>
</svg>
