<svg width="136" height="55" viewBox="0 0 136 55" fill="none" xmlns="http://www.w3.org/2000/svg">
<path d="M0 54.3067H41.4848V41.2115H12.8929V34.0476H36.4087V20.9524H12.8929V13.7885H41.4848V0.616249H0V54.3067Z" fill="#3763FF"/>
<path d="M70.0761 13.0952C74.1715 13.0952 78.1152 14.944 80.8455 18.1793L90.629 9.62885C85.4718 3.54342 77.9636 0 70.0761 0C55.1355 0 43.001 12.3249 43.001 27.5C43.001 42.6751 55.1355 55 70.0761 55C77.4327 55 84.3342 51.9958 89.4913 46.6036L80.2388 37.514C77.5085 40.2871 73.944 41.8277 70.0761 41.8277C62.2646 41.8277 55.8939 35.4342 55.8939 27.5C55.8939 19.5658 62.2646 13.0952 70.0761 13.0952Z" fill="#3763FF"/>
<path d="M115.447 13.0952C119.543 13.0952 123.486 14.944 126.217 18.1793L136 9.62885C130.843 3.54342 123.335 0 115.447 0C100.507 0 88.3721 12.3249 88.3721 27.5C88.3721 42.6751 100.507 55 115.447 55C122.804 55 129.705 51.9958 134.862 46.6036L125.61 37.514C122.88 40.2871 119.315 41.8277 115.447 41.8277C107.636 41.8277 101.265 35.4342 101.265 27.5C101.265 19.5658 107.636 13.0952 115.447 13.0952Z" fill="#3763FF"/>
<circle opacity="0.3" cx="115.5" cy="27.5" r="6.5" fill="#3763FF"/>
<circle opacity="0.3" cx="69.5" cy="27.5" r="6.5" fill="#3763FF"/>
</svg>
